<?xml version="1.0" encoding="utf-8"?>
<!-- Svg Vector Icons : http://www.onlinewebfonts.com/icon -->
<!DOCTYPE svg PUBLIC "-//W3C//DTD SVG 1.1//EN" "http://www.w3.org/Graphics/SVG/1.1/DTD/svg11.dtd">
<svg version="1.1" xmlns="http://www.w3.org/2000/svg" xmlns:xlink="http://www.w3.org/1999/xlink" x="0px" y="0px" viewBox="0 0 256 256" enable-background="new 0 0 256 256" xml:space="preserve">
<metadata> Svg Vector Icons : http://www.onlinewebfonts.com/icon </metadata>
<g><g><g><path fill="#000000" d="M120.6,30c-11.5,2.2-22.5,10.7-27.9,21.6c-3,6.1-3.2,6.9-3.2,16.8c0,9.4,0.3,11,2.6,16c3.7,7.9,11.2,15.5,19.3,19.3c3.6,1.8,7.1,3.2,7.8,3.2c1,0,1.2,2.5,1.2,10v10h-40c-47.9,0-43.7-1.3-43.9,13.5c-0.1,5.4-0.2,11.9-0.3,14.6l-0.1,4.8L25,160c-16.1,0.4-15-2-15,33.2v28.1l2.9,2.8l2.8,2.9l28.7-0.3l28.6-0.3l1.8-2.3c1.7-2.1,1.8-4.1,1.8-30.9v-28.8l-2.2-2c-2-1.9-3.2-2.1-12.8-2.1H50.9v-9.5v-9.5h34.7h34.7v9.5v9.5h-10.8c-15.8,0-14.8-2.2-14.8,32.9c0,15.3,0.3,28.5,0.6,29.4c1.5,3.8,4.8,4.3,32.7,4.3c28,0,31.2-0.5,32.7-4.3c0.3-0.9,0.6-14.1,0.6-29.4c0-35.1,1-32.9-14.8-32.9h-10.8v-9.5v-9.5h34.7h34.7v9.5v9.5h-10.8c-16.1,0-14.9-2.5-14.9,33c0,26.7,0.1,28.7,1.8,30.8l1.8,2.3l28.6,0.3l28.7,0.3l2.8-2.9l2.9-2.8v-28.1c0-34.9,1.1-32.4-14.9-33l-11.2-0.5l-0.5-15c-0.4-13.5-0.7-15.2-2.3-16.5c-1.5-1.1-8.8-1.3-41.7-1.3h-39.8v-10c0-7.5,0.3-10,1.2-10c0.7,0,4.2-1.4,7.8-3.2c8.1-3.8,15.6-11.5,19.3-19.3c3.3-7.3,4.1-19.6,1.6-27c-4.8-14.6-16.2-24.7-30.9-27.5C129,28.8,126.4,28.8,120.6,30z M138,45.9c18.7,8.5,19.3,35.4,1,44.4c-22.7,11-45.3-14.7-31.1-35.6c4.9-7.4,11.1-10.6,20.6-10.6C132,44.2,135.6,44.8,138,45.9z M62.3,193v18.6H43.8H25.2V193v-18.6h18.6h18.6L62.3,193L62.3,193z M147,193v18.6h-19h-19V193v-18.6h19h19V193z M230.8,193v18.6h-18.6h-18.6V193v-18.6h18.6h18.6V193z"/></g></g></g>
</svg>