<?xml version="1.0" encoding="utf-8"?>
<!-- Svg Vector Icons : http://www.onlinewebfonts.com/icon -->
<!DOCTYPE svg PUBLIC "-//W3C//DTD SVG 1.1//EN" "http://www.w3.org/Graphics/SVG/1.1/DTD/svg11.dtd">
<svg version="1.1" xmlns="http://www.w3.org/2000/svg" xmlns:xlink="http://www.w3.org/1999/xlink" x="0px" y="0px" viewBox="0 0 256 256" enable-background="new 0 0 256 256" xml:space="preserve">
<metadata> Svg Vector Icons : http://www.onlinewebfonts.com/icon </metadata>
<g><g><path fill="#000000" d="M188.6,124.9h38.1v14.1h-38.1V124.9L188.6,124.9z"/><path fill="#000000" d="M32.1,13.5v22.3l9.7-3v-9.5h194.5v124H81.5l-0.5,9.7h165V13.5H32.1z"/><path fill="#000000" d="M47.6,95.5c15.9,0,28.8-12.9,28.8-28.8c0-15.9-12.9-28.8-28.8-28.8c-15.9,0-28.8,12.9-28.8,28.8C18.8,82.6,31.6,95.5,47.6,95.5z"/><path fill="#000000" d="M72,229.3v-51.3v-4.8v-6.6h1.8l2.7-52l49.7-25.7l-4.2-8l1.2,2.1l53.2-30.5l-2.4-4.2l-53.1,30.4l-1.2-2.4L74.3,99.8H58.1l-11,12.8L36.4,99.8l-23.3,4.3l-1.5,51.8h9.9l0.5,10.7h1.5v6.5v4.8v51.3h-2L10,231.9v10.6h9.8l11.5-1.9l0.1,1.9h12.7v-11.9v-1.3v-51.3h7.2v51.3v1.3v11.9h12.7l0.1-1.9l11.5,1.9h9.8v-10.6L74,229.4L72,229.3L72,229.3z"/></g></g>
</svg>