<?xml version="1.0" encoding="utf-8"?>
<!-- Svg Vector Icons : http://www.onlinewebfonts.com/icon -->
<!DOCTYPE svg PUBLIC "-//W3C//DTD SVG 1.1//EN" "http://www.w3.org/Graphics/SVG/1.1/DTD/svg11.dtd">
<svg version="1.1" xmlns="http://www.w3.org/2000/svg" xmlns:xlink="http://www.w3.org/1999/xlink" x="0px" y="0px" viewBox="0 0 256 256" enable-background="new 0 0 256 256" xml:space="preserve">
<metadata> Svg Vector Icons : http://www.onlinewebfonts.com/icon </metadata>
<g><g><g><path fill="#000000" d="M117.3,10.5c-33.6,3.2-63.8,20.2-83.9,47.1c-21.6,29-28.6,65.2-19.5,100.5c13.7,52.9,63.8,90.1,118.3,87.8c30.7-1.3,58.2-13.3,79.6-35c21.2-21.4,32.9-48.4,34.1-78.7c1.7-41.1-18.8-80.2-54-103.3C170.4,14.8,143,8,117.3,10.5z M139.6,29.1c24.4,2.7,47.4,14.9,63.5,33.7c12.9,15,20.9,32.5,23.6,52c1,6.8,0.9,19.9,0,26.8c-6.2,44.3-41,79.1-85.3,85.3c-6.9,0.9-19.9,1-26.8,0c-33-4.6-61.1-24.8-75.9-54.4c-7.1-14.2-10.3-28.1-10.3-44.3c0-11,1.3-19.7,4.3-29.4c6.1-19.7,18.8-37.8,35.4-50.2C88.7,32.9,113.6,26.2,139.6,29.1z"/><path fill="#000000" d="M117.1,56.6c-11.2,1.9-22,6.2-31.1,12.7c-5,3.6-13.3,11.9-17,17.1c-3.3,4.7-7.8,13.6-9.6,19c-2.7,8.1-3.2,11.9-3.2,22.6c0,10.8,0.5,14.5,3.2,22.6c1.8,5.4,6.2,14.2,9.6,19c3.7,5.2,11.9,13.5,17,17.1c7.7,5.4,16.8,9.5,26.5,11.8c5.2,1.3,6.2,1.3,15.6,1.3c8.6,0,10.6-0.1,14.5-1c6.3-1.4,10.9-3,17.1-6l5.3-2.6l-2.5-2.5l-2.5-2.5l-2.4,2.5c-3.3,3.3-6.4,4.2-10.7,2.9c-2.6-0.8-5.9-4.1-7-7.3l-0.8-2.5l-3.3,0.4c-17.5,2-32.8-3-44.8-14.5C78.5,155,72.6,138.7,74.5,122c3.7-31.8,33.9-53.4,65.1-46.6c20.4,4.5,36.5,20.6,41,41.1c1.6,7.2,1.6,15.4,0.2,22.5c-0.3,1.3-0.2,1.5,2.1,2.5c5.4,2.3,7.6,5.3,7.6,10.3c0,3.7-1.5,6.6-4.4,8.6l-1.9,1.3l2.4,2.5l2.5,2.5l0.9-1.5c1.7-2.8,5.4-10.8,6.6-14.4c2.7-8.1,3.2-11.8,3.2-22.6c0-9.3,0-10.4-1.3-15.6c-2.2-9.6-6.3-18.7-11.8-26.5c-3.6-5-11.9-13.3-17.1-17c-7.5-5.3-17.5-9.7-26.9-11.7C137.2,56.1,122.7,55.7,117.1,56.6z"/><path fill="#000000" d="M123,106.8c-8.6,2.1-15,9-16.5,17.9c-1.5,9.1,3.5,18.9,11.9,22.8c2.8,1.3,7.3,2.4,7.3,1.7c0-0.2-1.7-4.4-3.8-9.4c-3-7.3-3.8-9.6-3.8-11.6c0-6.2,5.3-11,11.4-10.3c1.1,0.1,5.9,2,11,4.3c4.9,2.2,9,4,9.1,3.9c0.1-0.1,0-1.2-0.3-2.5C146.9,111.8,134.7,104,123,106.8z"/><path fill="#000000" d="M128.4,126.7c-0.5,0.2-0.8,0.9-0.8,1.4c0,1,21.2,52.7,22,53.8c0.3,0.3,1,0.6,1.6,0.5c1-0.1,1.5-0.9,3.6-6c1.3-3.2,2.6-6,2.7-6.3c0.1-0.3,4.5,4,9.8,9.4c6.5,6.6,9.9,9.9,10.5,9.8c1.3-0.2,10.7-9.5,10.7-10.6c0-0.7-3.2-4.2-9.2-10.5c-5.1-5.2-9.3-9.7-9.3-9.9c0-0.2,2.6-1.4,6-2.6c6.2-2.3,7.6-3.3,6.6-4.7c-0.3-0.5-52.9-24.9-53.4-24.8C129.2,126.2,128.8,126.4,128.4,126.7z"/></g></g></g>
</svg>