<?xml version="1.0" encoding="utf-8"?>
<!-- Svg Vector Icons : http://www.onlinewebfonts.com/icon -->
<!DOCTYPE svg PUBLIC "-//W3C//DTD SVG 1.1//EN" "http://www.w3.org/Graphics/SVG/1.1/DTD/svg11.dtd">
<svg version="1.1" xmlns="http://www.w3.org/2000/svg" xmlns:xlink="http://www.w3.org/1999/xlink" x="0px" y="0px" viewBox="0 0 256 256" enable-background="new 0 0 256 256" xml:space="preserve">
<metadata> Svg Vector Icons : http://www.onlinewebfonts.com/icon </metadata>
<g><g><g><path fill="#000000" d="M79.2,10.5c-3.8,1.5-6.9,4.8-7.9,8.6c-1.1,4,0.8,8.2,5.2,11.5l2,1.4v54.2l0,54.2l-3.3,3.2c-1.8,1.8-3.5,3.6-3.7,4.1c-0.4,0.8-0.7,0.8-2.8,0.3c-4-0.9-10.8-1.1-15.2-0.5c-22.7,3.1-40.3,21-43.2,43.7c-1.8,14.1,3.7,29.5,14.3,40.1c7.8,7.8,18.6,13.1,29.2,14.3c3,0.4,29.2,0.5,80.6,0.4l76.2-0.1l3.6-1c7.8-2.3,14-5.9,19.3-11.3c16.2-16.2,16.6-40.7,1-57.7c-5.3-5.7-14.5-11.1-20.9-12.3c-1.5-0.3-1.8-0.5-2-1.9c-2.3-15.9-6.9-25.6-16.9-35.6c-8.3-8.3-17.5-13.3-29.2-16c-5.1-1.1-16.5-1.1-21.8,0c-10.9,2.4-21.3,7.9-29,15.4c-2.8,2.8-7.5,8.7-9.4,11.7c-0.4,0.7-0.7,0.7-3.6-0.2c-3.3-1.1-9.5-1.4-13.4-0.8l-2.3,0.4V119v-17.7l55.2-0.1l55.3-0.1l-14.5-18.6c-8-10.2-14.5-18.8-14.5-19.1c0-0.3,6.7-8.1,14.8-17.4l14.8-16.9L143.7,29L90.3,29l1.1-1.6c3.4-4.6,2.9-9.2-1.6-13.7C86.4,10.1,82.9,9.1,79.2,10.5z M85.2,18.5c0.6,0.6,1,1.6,1,2.9c0,2.5-1.3,3.8-3.8,3.8c-2.5,0-3.8-1.3-3.8-3.8c0-1.3,0.3-2.2,1-2.9c0.6-0.6,1.6-1,2.9-1S84.5,17.9,85.2,18.5z M179.8,37.4c-0.4,0.5-5.3,6.1-10.9,12.5c-5.6,6.4-10.5,12.1-10.9,12.5c-0.6,0.7,0.5,2.3,11.1,15.8c6.4,8.3,11.7,15.1,11.7,15.3c0,0.1-21.3,0.2-47.4,0.2H86.1V65.2V36.6h47.2C178.3,36.6,180.5,36.6,179.8,37.4z M167.1,118c12.2,3.2,22.3,10.4,29.1,20.7c4.9,7.4,7.5,15.6,7.9,25.1l0.3,6.1h1.6c0.9,0,3.3,0.3,5.3,0.8c12.4,2.5,21.7,10.8,25.7,23c1.1,3.2,1.2,4.5,1.2,10.3c0,5.7-0.1,7.2-1,10.2c-1.9,6.1-4.2,9.8-8.7,14.3c-4.3,4.4-8,6.6-14.1,8.7l-3.3,1.1l-77.9,0.1c-69.5,0.1-78.3,0-81.9-0.7c-17.1-3.2-29.9-16.1-33.1-33.3c-1-5.5-0.8-13.6,0.7-19c3.8-14.2,15-25.4,29.4-29.4c3.1-0.9,5-1,11.1-1c6.5,0,7.9,0.2,11.5,1.2l4.1,1.2l0.7-1.8c0.4-1,1.1-2.5,1.7-3.4l1-1.6v24.9v24.9h-7.6h-7.6v3.8v3.8h53.3h53.3v-3.8v-3.8H128H86.1v-27.9v-27.9l1.3-0.6c0.7-0.3,3.4-0.6,6.3-0.6c5.5,0,7.1,0.5,11.8,3.7l2.5,1.7l2.4-4.7c6.4-12.8,16.4-21.4,29.5-25.5c5.8-1.8,8.9-2.1,16.4-2C161.3,116.9,164.1,117.3,167.1,118z"/><path fill="#000000" d="M181.4,204.2v3.8h9.5h9.5v-3.8v-3.8h-9.5h-9.5L181.4,204.2L181.4,204.2z"/></g></g></g>
</svg>